<svg width="16" height="16" viewBox="0 0 16 16" fill="none" xmlns="http://www.w3.org/2000/svg">
<rect width="16" height="16" fill="#F5F5F5"/>
<g clip-path="url(#clip0_0_1)">
<rect width="390" height="844" transform="translate(-152 -766)" fill="#1D1B20"/>
<rect x="-136" y="-61" width="358" height="80" rx="12" fill="#49454F"/>
<path d="M-59.625 -2H-62.767V-12.1818H-59.4858C-58.4981 -12.1818 -57.6529 -11.978 -56.9503 -11.5703C-56.2476 -11.166 -55.709 -10.5843 -55.3345 -9.82528C-54.96 -9.0696 -54.7727 -8.16477 -54.7727 -7.1108C-54.7727 -6.05019 -54.9616 -5.13707 -55.3395 -4.37145C-55.7173 -3.60914 -56.2675 -3.02249 -56.9901 -2.61151C-57.7126 -2.20384 -58.5909 -2 -59.625 -2ZM-61.5341 -3.09375H-59.7045C-58.8627 -3.09375 -58.165 -3.25616 -57.6115 -3.58097C-57.058 -3.90578 -56.6454 -4.36813 -56.3736 -4.96804C-56.1018 -5.56795 -55.9659 -6.2822 -55.9659 -7.1108C-55.9659 -7.93277 -56.1001 -8.64039 -56.3686 -9.23367C-56.6371 -9.83026 -57.0381 -10.2876 -57.5717 -10.6058C-58.1054 -10.9273 -58.7699 -11.0881 -59.5653 -11.0881H-61.5341V-3.09375ZM-49.6619 -1.84091C-50.3977 -1.84091 -51.0324 -2.00331 -51.5661 -2.32812C-52.0964 -2.65625 -52.5057 -3.11364 -52.794 -3.70028C-53.0791 -4.29025 -53.2216 -4.97633 -53.2216 -5.75852C-53.2216 -6.54072 -53.0791 -7.23011 -52.794 -7.8267C-52.5057 -8.42661 -52.1046 -8.89394 -51.5909 -9.22869C-51.0739 -9.56676 -50.4706 -9.7358 -49.7812 -9.7358C-49.3835 -9.7358 -48.9908 -9.66951 -48.603 -9.53693C-48.2152 -9.40436 -47.8622 -9.18892 -47.544 -8.89062C-47.2259 -8.59564 -46.9723 -8.20455 -46.7834 -7.71733C-46.5945 -7.23011 -46.5 -6.63021 -46.5 -5.91761V-5.42045H-52.3864V-6.43466H-47.6932C-47.6932 -6.86553 -47.7794 -7.25 -47.9517 -7.58807C-48.1207 -7.92614 -48.3627 -8.19295 -48.6776 -8.38849C-48.9891 -8.58404 -49.357 -8.68182 -49.7812 -8.68182C-50.2486 -8.68182 -50.6529 -8.56581 -50.9943 -8.33381C-51.3324 -8.10511 -51.5926 -7.80682 -51.7749 -7.43892C-51.9571 -7.07102 -52.0483 -6.67661 -52.0483 -6.25568V-5.57955C-52.0483 -5.00284 -51.9489 -4.51397 -51.75 -4.11293C-51.5478 -3.7152 -51.2678 -3.41193 -50.9098 -3.20312C-50.5518 -2.99763 -50.1359 -2.89489 -49.6619 -2.89489C-49.3537 -2.89489 -49.0753 -2.93797 -48.8267 -3.02415C-48.5748 -3.11364 -48.3577 -3.24621 -48.1754 -3.42188C-47.9931 -3.60085 -47.8523 -3.82292 -47.7528 -4.08807L-46.6193 -3.76989C-46.7386 -3.38542 -46.9392 -3.04735 -47.2209 -2.75568C-47.5026 -2.46733 -47.8506 -2.24195 -48.2649 -2.07955C-48.6792 -1.92045 -49.1449 -1.84091 -49.6619 -1.84091ZM-41.6129 -1.84091C-42.3288 -1.84091 -42.9453 -2.00994 -43.4624 -2.34801C-43.9794 -2.68608 -44.3771 -3.15175 -44.6555 -3.74503C-44.9339 -4.33831 -45.0732 -5.0161 -45.0732 -5.77841C-45.0732 -6.55398 -44.9306 -7.2384 -44.6456 -7.83168C-44.3572 -8.42827 -43.9562 -8.89394 -43.4425 -9.22869C-42.9254 -9.56676 -42.3222 -9.7358 -41.6328 -9.7358C-41.0959 -9.7358 -40.612 -9.63636 -40.1811 -9.4375C-39.7502 -9.23864 -39.3973 -8.96023 -39.1222 -8.60227C-38.8471 -8.24432 -38.6764 -7.8267 -38.6101 -7.34943H-39.7834C-39.8729 -7.69744 -40.0717 -8.00568 -40.38 -8.27415C-40.6849 -8.54593 -41.0959 -8.68182 -41.6129 -8.68182C-42.0703 -8.68182 -42.4714 -8.5625 -42.8161 -8.32386C-43.1574 -8.08854 -43.4242 -7.75545 -43.6165 -7.32457C-43.8054 -6.89702 -43.8999 -6.39489 -43.8999 -5.81818C-43.8999 -5.22822 -43.8071 -4.71449 -43.6214 -4.27699C-43.4325 -3.83949 -43.1674 -3.49976 -42.826 -3.25781C-42.4813 -3.01586 -42.0769 -2.89489 -41.6129 -2.89489C-41.308 -2.89489 -41.0312 -2.94792 -40.7827 -3.05398C-40.5341 -3.16004 -40.3236 -3.3125 -40.1513 -3.51136C-39.9789 -3.71023 -39.8563 -3.94886 -39.7834 -4.22727H-38.6101C-38.6764 -3.77652 -38.8404 -3.3705 -39.1023 -3.00923C-39.3608 -2.65128 -39.7038 -2.36624 -40.1314 -2.15412C-40.5556 -1.94531 -41.0495 -1.84091 -41.6129 -1.84091ZM-33.6932 -1.84091C-34.429 -1.84091 -35.0637 -2.00331 -35.5973 -2.32812C-36.1276 -2.65625 -36.5369 -3.11364 -36.8253 -3.70028C-37.1103 -4.29025 -37.2528 -4.97633 -37.2528 -5.75852C-37.2528 -6.54072 -37.1103 -7.23011 -36.8253 -7.8267C-36.5369 -8.42661 -36.1359 -8.89394 -35.6222 -9.22869C-35.1051 -9.56676 -34.5019 -9.7358 -33.8125 -9.7358C-33.4148 -9.7358 -33.022 -9.66951 -32.6342 -9.53693C-32.2464 -9.40436 -31.8935 -9.18892 -31.5753 -8.89062C-31.2571 -8.59564 -31.0036 -8.20455 -30.8146 -7.71733C-30.6257 -7.23011 -30.5312 -6.63021 -30.5312 -5.91761V-5.42045H-36.4176V-6.43466H-31.7244C-31.7244 -6.86553 -31.8106 -7.25 -31.983 -7.58807C-32.152 -7.92614 -32.3939 -8.19295 -32.7088 -8.38849C-33.0204 -8.58404 -33.3883 -8.68182 -33.8125 -8.68182C-34.2798 -8.68182 -34.6842 -8.56581 -35.0256 -8.33381C-35.3636 -8.10511 -35.6238 -7.80682 -35.8061 -7.43892C-35.9884 -7.07102 -36.0795 -6.67661 -36.0795 -6.25568V-5.57955C-36.0795 -5.00284 -35.9801 -4.51397 -35.7812 -4.11293C-35.5791 -3.7152 -35.299 -3.41193 -34.9411 -3.20312C-34.5831 -2.99763 -34.1671 -2.89489 -33.6932 -2.89489C-33.3849 -2.89489 -33.1065 -2.93797 -32.858 -3.02415C-32.6061 -3.11364 -32.389 -3.24621 -32.2067 -3.42188C-32.0244 -3.60085 -31.8835 -3.82292 -31.7841 -4.08807L-30.6506 -3.76989C-30.7699 -3.38542 -30.9704 -3.04735 -31.2521 -2.75568C-31.5339 -2.46733 -31.8819 -2.24195 -32.2962 -2.07955C-32.7105 -1.92045 -33.1761 -1.84091 -33.6932 -1.84091ZM-28.7464 -2V-9.63636H-27.6129V-8.44318H-27.5135C-27.3544 -8.85085 -27.0975 -9.16738 -26.7429 -9.39276C-26.3883 -9.62145 -25.9624 -9.7358 -25.4652 -9.7358C-24.9614 -9.7358 -24.5421 -9.62145 -24.2074 -9.39276C-23.8693 -9.16738 -23.6058 -8.85085 -23.4169 -8.44318H-23.3374C-23.1418 -8.83759 -22.8485 -9.15081 -22.4574 -9.38281C-22.0663 -9.61813 -21.5973 -9.7358 -21.0504 -9.7358C-20.3677 -9.7358 -19.8092 -9.52202 -19.375 -9.09446C-18.9408 -8.67022 -18.7237 -8.009 -18.7237 -7.1108V-2H-19.897V-7.1108C-19.897 -7.67424 -20.0511 -8.07694 -20.3594 -8.31889C-20.6676 -8.56084 -21.0305 -8.68182 -21.4482 -8.68182C-21.9851 -8.68182 -22.401 -8.51941 -22.696 -8.1946C-22.991 -7.87311 -23.1385 -7.46544 -23.1385 -6.97159V-2H-24.3317V-7.23011C-24.3317 -7.6643 -24.4725 -8.01397 -24.7543 -8.27912C-25.036 -8.54759 -25.3989 -8.68182 -25.843 -8.68182C-26.148 -8.68182 -26.433 -8.60062 -26.6982 -8.43821C-26.96 -8.27581 -27.1721 -8.05043 -27.3345 -7.76207C-27.4936 -7.47704 -27.5732 -7.14725 -27.5732 -6.77273V-2H-28.7464ZM-16.4194 -2V-12.1818H-15.2461V-8.4233H-15.1467C-15.0605 -8.55587 -14.9412 -8.72491 -14.7887 -8.9304C-14.6329 -9.1392 -14.4109 -9.32481 -14.1225 -9.48722C-13.8308 -9.65294 -13.4364 -9.7358 -12.9393 -9.7358C-12.2963 -9.7358 -11.7295 -9.57505 -11.239 -9.25355C-10.7485 -8.93206 -10.3656 -8.47633 -10.0906 -7.88636C-9.81546 -7.2964 -9.67791 -6.60038 -9.67791 -5.7983C-9.67791 -4.98958 -9.81546 -4.28859 -10.0906 -3.69531C-10.3656 -3.10535 -10.7468 -2.64796 -11.234 -2.32315C-11.7212 -2.00166 -12.283 -1.84091 -12.9194 -1.84091C-13.4099 -1.84091 -13.8027 -1.92211 -14.0977 -2.08452C-14.3926 -2.25024 -14.6197 -2.4375 -14.7788 -2.64631C-14.9379 -2.85843 -15.0605 -3.03409 -15.1467 -3.1733H-15.2859V-2H-16.4194ZM-15.266 -5.81818C-15.266 -5.24148 -15.1815 -4.73272 -15.0124 -4.2919C-14.8434 -3.8544 -14.5965 -3.51136 -14.2717 -3.26278C-13.9469 -3.01752 -13.5491 -2.89489 -13.0785 -2.89489C-12.5879 -2.89489 -12.1786 -3.02415 -11.8505 -3.28267C-11.5191 -3.54451 -11.2705 -3.89583 -11.1048 -4.33665C-10.9357 -4.78078 -10.8512 -5.27462 -10.8512 -5.81818C-10.8512 -6.35511 -10.9341 -6.83902 -11.0998 -7.26989C-11.2622 -7.70407 -11.5091 -8.04711 -11.8406 -8.29901C-12.1687 -8.55421 -12.5813 -8.68182 -13.0785 -8.68182C-13.5558 -8.68182 -13.9568 -8.56084 -14.2816 -8.31889C-14.6064 -8.08026 -14.8517 -7.7455 -15.0174 -7.31463C-15.1831 -6.88707 -15.266 -6.38826 -15.266 -5.81818ZM-4.68146 -1.84091C-5.41726 -1.84091 -6.05196 -2.00331 -6.58558 -2.32812C-7.11589 -2.65625 -7.52521 -3.11364 -7.81357 -3.70028C-8.0986 -4.29025 -8.24112 -4.97633 -8.24112 -5.75852C-8.24112 -6.54072 -8.0986 -7.23011 -7.81357 -7.8267C-7.52521 -8.42661 -7.12417 -8.89394 -6.61044 -9.22869C-6.09339 -9.56676 -5.49018 -9.7358 -4.80078 -9.7358C-4.40305 -9.7358 -4.0103 -9.66951 -3.62251 -9.53693C-3.23473 -9.40436 -2.88175 -9.18892 -2.56357 -8.89062C-2.24538 -8.59564 -1.99183 -8.20455 -1.80291 -7.71733C-1.61399 -7.23011 -1.51953 -6.63021 -1.51953 -5.91761V-5.42045H-7.40589V-6.43466H-2.71271C-2.71271 -6.86553 -2.79889 -7.25 -2.97124 -7.58807C-3.14027 -7.92614 -3.38222 -8.19295 -3.69709 -8.38849C-4.00864 -8.58404 -4.37654 -8.68182 -4.80078 -8.68182C-5.26811 -8.68182 -5.67247 -8.56581 -6.01385 -8.33381C-6.35192 -8.10511 -6.6121 -7.80682 -6.79439 -7.43892C-6.97668 -7.07102 -7.06783 -6.67661 -7.06783 -6.25568V-5.57955C-7.06783 -5.00284 -6.96839 -4.51397 -6.76953 -4.11293C-6.56735 -3.7152 -6.28729 -3.41193 -5.92933 -3.20312C-5.57138 -2.99763 -5.15542 -2.89489 -4.68146 -2.89489C-4.37322 -2.89489 -4.09482 -2.93797 -3.84624 -3.02415C-3.59434 -3.11364 -3.37725 -3.24621 -3.19496 -3.42188C-3.01267 -3.60085 -2.8718 -3.82292 -2.77237 -4.08807L-1.63885 -3.76989C-1.75817 -3.38542 -1.95869 -3.04735 -2.24041 -2.75568C-2.52214 -2.46733 -2.87015 -2.24195 -3.28445 -2.07955C-3.69875 -1.92045 -4.16442 -1.84091 -4.68146 -1.84091ZM0.26527 -2V-9.63636H1.39879V-8.48295H1.47834C1.61754 -8.8608 1.86944 -9.16738 2.23402 -9.4027C2.5986 -9.63802 3.00959 -9.75568 3.46697 -9.75568C3.55315 -9.75568 3.66087 -9.75403 3.79013 -9.75071C3.91939 -9.7474 4.01716 -9.74242 4.08345 -9.7358V-8.54261C4.04368 -8.55256 3.95253 -8.56747 3.81001 -8.58736C3.67081 -8.61056 3.52332 -8.62216 3.36754 -8.62216C2.99633 -8.62216 2.66489 -8.54427 2.37322 -8.38849C2.08487 -8.23603 1.85618 -8.02391 1.68714 -7.75213C1.52143 -7.48366 1.43857 -7.17708 1.43857 -6.83239V-2H0.26527ZM12.9714 -12.1818V-2H11.7385V-10.8892H11.6788L9.193 -9.23864V-10.4915L11.7385 -12.1818H12.9714ZM17.068 -3.39205L16.9885 -2.85511C16.9321 -2.47727 16.8459 -2.07292 16.7299 -1.64205C16.6172 -1.21117 16.4996 -0.805161 16.377 -0.424006C16.2543 -0.0428504 16.1532 0.260417 16.0737 0.485796H15.1788C15.2219 0.273674 15.2782 -0.00639202 15.3478 -0.354403C15.4174 -0.702415 15.487 -1.09186 15.5566 -1.52273C15.6296 -1.95028 15.6892 -2.38778 15.7356 -2.83523L15.7953 -3.39205H17.068ZM23.1594 -2V-2.89489L26.5202 -6.57386C26.9147 -7.00474 27.2395 -7.37926 27.4947 -7.69744C27.7499 -8.01894 27.9388 -8.32055 28.0614 -8.60227C28.1874 -8.88731 28.2504 -9.18561 28.2504 -9.49716C28.2504 -9.85511 28.1642 -10.165 27.9918 -10.4268C27.8228 -10.6887 27.5908 -10.8909 27.2958 -11.0334C27.0008 -11.1759 26.6694 -11.2472 26.3015 -11.2472C25.9104 -11.2472 25.569 -11.166 25.2773 -11.0036C24.989 -10.8445 24.7653 -10.6207 24.6062 -10.3324C24.4504 -10.044 24.3725 -9.70597 24.3725 -9.31818H23.1992C23.1992 -9.91477 23.3368 -10.4384 23.6119 -10.8892C23.887 -11.34 24.2615 -11.6913 24.7354 -11.9432C25.2127 -12.1951 25.748 -12.321 26.3413 -12.321C26.9379 -12.321 27.4665 -12.1951 27.9272 -11.9432C28.3879 -11.6913 28.7492 -11.3516 29.011 -10.924C29.2728 -10.4964 29.4038 -10.0208 29.4038 -9.49716C29.4038 -9.12263 29.3358 -8.75639 29.1999 -8.39844C29.0674 -8.0438 28.8353 -7.64773 28.5039 -7.21023C28.1758 -6.77604 27.7201 -6.24574 27.1367 -5.61932L24.8498 -3.1733V-3.09375H29.5827V-2H23.1594ZM34.957 -1.8608C34.208 -1.8608 33.57 -2.06463 33.043 -2.4723C32.516 -2.88329 32.1133 -3.47822 31.8349 -4.2571C31.5565 -5.0393 31.4173 -5.9839 31.4173 -7.09091C31.4173 -8.19129 31.5565 -9.13092 31.8349 -9.9098C32.1166 -10.692 32.521 -11.2886 33.0479 -11.6996C33.5782 -12.1139 34.2146 -12.321 34.957 -12.321C35.6995 -12.321 36.3342 -12.1139 36.8612 -11.6996C37.3915 -11.2886 37.7958 -10.692 38.0742 -9.9098C38.3559 -9.13092 38.4968 -8.19129 38.4968 -7.09091C38.4968 -5.9839 38.3576 -5.0393 38.0792 -4.2571C37.8008 -3.47822 37.3981 -2.88329 36.8711 -2.4723C36.3441 -2.06463 35.7061 -1.8608 34.957 -1.8608ZM34.957 -2.95455C35.6995 -2.95455 36.2762 -3.3125 36.6871 -4.02841C37.0981 -4.74432 37.3036 -5.76515 37.3036 -7.09091C37.3036 -7.97254 37.2092 -8.72325 37.0202 -9.34304C36.8346 -9.96283 36.5662 -10.4351 36.2148 -10.7599C35.8668 -11.0848 35.4476 -11.2472 34.957 -11.2472C34.2212 -11.2472 33.6462 -10.8842 33.2319 -10.1584C32.8176 -9.43584 32.6104 -8.41335 32.6104 -7.09091C32.6104 -6.20928 32.7032 -5.46023 32.8888 -4.84375C33.0745 -4.22727 33.3413 -3.75829 33.6893 -3.43679C34.0406 -3.11529 34.4632 -2.95455 34.957 -2.95455ZM40.386 -2V-2.89489L43.7468 -6.57386C44.1412 -7.00474 44.466 -7.37926 44.7212 -7.69744C44.9764 -8.01894 45.1654 -8.32055 45.288 -8.60227C45.4139 -8.88731 45.4769 -9.18561 45.4769 -9.49716C45.4769 -9.85511 45.3907 -10.165 45.2184 -10.4268C45.0494 -10.6887 44.8174 -10.8909 44.5224 -11.0334C44.2274 -11.1759 43.896 -11.2472 43.5281 -11.2472C43.137 -11.2472 42.7956 -11.166 42.5039 -11.0036C42.2156 -10.8445 41.9918 -10.6207 41.8327 -10.3324C41.677 -10.044 41.5991 -9.70597 41.5991 -9.31818H40.4258C40.4258 -9.91477 40.5633 -10.4384 40.8384 -10.8892C41.1135 -11.34 41.488 -11.6913 41.962 -11.9432C42.4393 -12.1951 42.9746 -12.321 43.5678 -12.321C44.1644 -12.321 44.6931 -12.1951 45.1538 -11.9432C45.6145 -11.6913 45.9757 -11.3516 46.2376 -10.924C46.4994 -10.4964 46.6303 -10.0208 46.6303 -9.49716C46.6303 -9.12263 46.5624 -8.75639 46.4265 -8.39844C46.2939 -8.0438 46.0619 -7.64773 45.7305 -7.21023C45.4023 -6.77604 44.9466 -6.24574 44.3633 -5.61932L42.0763 -3.1733V-3.09375H46.8093V-2H40.386ZM48.4052 -4.08807V-5.10227L52.8796 -12.1818H53.6154V-10.6108H53.1183L49.7376 -5.26136V-5.18182H55.7631V-4.08807H48.4052ZM53.1978 -2V-4.39631V-4.86861V-12.1818H54.3711V-2H53.1978Z" fill="#E6E0E9"/>
<rect x="-152" y="-12" width="390" height="56" fill="#1D1B20"/>
<path d="M10.0833 12.8C9.5 12.8 9.00833 12.608 8.6 12.216C8.2 11.832 7.99167 11.352 7.99167 10.792C7.99167 10.232 8.19167 9.76 8.6 9.368C9 8.984 9.5 8.784 10.0833 8.784C10.6667 8.784 11.1583 8.976 11.5667 9.368C11.975 9.76 12.175 10.232 12.175 10.792C12.175 11.352 11.975 11.824 11.5667 12.216C11.1667 12.6 10.6667 12.8 10.0833 12.8ZM2.16667 16C1.70833 16 1.31667 15.84 0.991667 15.528C0.666667 15.216 0.5 14.84 0.5 14.4V3.2C0.5 2.76 0.666667 2.384 0.991667 2.072C1.31667 1.76 1.70833 1.6 2.16667 1.6H3V0H4.66667V1.6H11.3333V0H13V1.6H13.8333C14.2917 1.6 14.6833 1.76 15.0083 2.072C15.3333 2.384 15.5 2.76 15.5 3.2V14.4C15.5 14.84 15.3333 15.216 15.0083 15.528C14.6833 15.84 14.2917 16 13.8333 16H2.16667ZM2.16667 14.4H13.8333V6.4H2.16667V14.4ZM2.16667 4.8H13.8333V3.2H2.16667V4.8Z" fill="#D0021B"/>
</g>
<defs>
<clipPath id="clip0_0_1">
<rect width="390" height="844" fill="white" transform="translate(-152 -766)"/>
</clipPath>
</defs>
</svg>
